<svg xmlns="http://www.w3.org/2000/svg" xmlns:xlink="http://www.w3.org/1999/xlink" width="800" height="800" viewBox="0 0 800 800"><rect width="100%" height="100%" fill="#000000"/><path d="M155.95 396.91L155.95 396.91Q155.95 395.03 156.63 393.19Q157.31 391.34 158.62 389.89Q159.92 388.44 161.81 387.54Q163.69 386.65 166.10 386.65L166.10 386.65Q168.94 386.65 171.02 387.89Q173.09 389.14 174.10 391.14L174.10 391.14L171.03 393.26Q170.62 392.39 170.04 391.79Q169.46 391.20 168.80 390.85Q168.13 390.50 167.41 390.34Q166.68 390.18 165.98 390.18L165.98 390.18Q164.48 390.18 163.36 390.79Q162.24 391.40 161.50 392.37Q160.76 393.34 160.39 394.58Q160.01 395.81 160.01 397.03L160.01 397.03Q160.01 398.39 160.45 399.65Q160.88 400.91 161.68 401.87Q162.48 402.83 163.59 403.41Q164.71 403.99 166.04 403.99L166.04 403.99Q166.74 403.99 167.49 403.81Q168.25 403.64 168.93 403.26Q169.61 402.89 170.19 402.29Q170.77 401.70 171.12 400.86L171.12 400.86L174.39 402.74Q173.90 403.90 172.99 404.79Q172.07 405.67 170.93 406.28Q169.78 406.89 168.48 407.21Q167.17 407.53 165.93 407.53L165.93 407.53Q163.72 407.53 161.90 406.60Q160.07 405.67 158.75 404.18Q157.43 402.68 156.69 400.78Q155.95 398.88 155.95 396.91ZM180.86 407.64L180.86 407.64Q179.76 407.64 178.80 407.28Q177.85 406.92 177.15 406.26Q176.45 405.61 176.06 404.74Q175.67 403.87 175.67 402.83L175.67 402.83Q175.67 401.75 176.15 400.84Q176.63 399.93 177.48 399.29Q178.34 398.65 179.53 398.29Q180.72 397.93 182.14 397.93L182.14 397.93Q183.15 397.93 184.12 398.10Q185.10 398.27 185.85 398.59L185.85 398.59L185.85 397.72Q185.85 396.22 184.99 395.40Q184.14 394.59 182.46 394.59L182.46 394.59Q181.24 394.59 180.08 395.03Q178.92 395.46 177.70 396.30L177.70 396.30L176.51 393.84Q179.44 391.89 182.83 391.89L182.83 391.89Q186.11 391.89 187.92 393.50Q189.74 395.11 189.74 398.16L189.74 398.16L189.74 402.89Q189.74 403.49 189.95 403.76Q190.17 404.02 190.66 404.05L190.66 404.05L190.66 407.35Q189.68 407.55 188.95 407.55L188.95 407.55Q187.85 407.55 187.26 407.06Q186.66 406.57 186.52 405.76L186.52 405.76L186.43 404.92Q185.41 406.25 183.96 406.95Q182.51 407.64 180.86 407.64ZM181.96 404.80L181.96 404.80Q182.95 404.80 183.83 404.45Q184.72 404.10 185.21 403.52L185.21 403.52Q185.85 403.03 185.85 402.42L185.85 402.42L185.85 400.68Q185.15 400.42 184.34 400.26Q183.53 400.10 182.78 400.10L182.78 400.10Q181.27 400.10 180.31 400.78Q179.35 401.46 179.35 402.51L179.35 402.51Q179.35 403.49 180.11 404.15Q180.86 404.80 181.96 404.80ZM202.41 391.98L202.41 395.52Q200.64 395.55 199.25 396.20Q197.86 396.85 197.25 398.16L197.25 398.16L197.25 407.35L193.36 407.35L193.36 392.16L196.93 392.16L196.93 395.40Q197.33 394.62 197.88 394.00Q198.44 393.37 199.07 392.91Q199.71 392.45 200.36 392.20Q201.02 391.95 201.63 391.95L201.63 391.95Q201.94 391.95 202.10 391.95Q202.26 391.95 202.41 391.98L202.41 391.98ZM209.77 407.44L209.77 407.44Q208.24 407.44 206.99 406.83Q205.74 406.22 204.83 405.16Q203.92 404.10 203.42 402.71Q202.93 401.32 202.93 399.75L202.93 399.75Q202.93 398.10 203.45 396.68Q203.97 395.26 204.90 394.19Q205.83 393.11 207.14 392.50Q208.44 391.89 210.01 391.89L210.01 391.89Q211.78 391.89 213.11 392.69Q214.44 393.49 215.31 394.82L215.31 394.82L215.31 392.16L218.71 392.16L218.71 406.63Q218.71 408.31 218.07 409.64Q217.43 410.98 216.31 411.90Q215.20 412.83 213.65 413.33Q212.09 413.82 210.27 413.82L210.27 413.82Q207.77 413.82 206.08 412.99Q204.38 412.17 203.16 410.66L203.16 410.66L205.28 408.60Q206.15 409.67 207.47 410.28Q208.79 410.89 210.27 410.89L210.27 410.89Q211.17 410.89 211.99 410.64Q212.82 410.40 213.46 409.87Q214.10 409.35 214.46 408.54Q214.82 407.73 214.82 406.63L214.82 406.63L214.82 404.71Q214.07 406.02 212.70 406.73Q211.34 407.44 209.77 407.44ZM211.08 404.34L211.08 404.34Q211.72 404.34 212.30 404.13Q212.88 403.93 213.37 403.58Q213.86 403.23 214.24 402.77Q214.62 402.31 214.82 401.78L214.82 401.78L214.82 398.16Q214.30 396.82 213.18 396.01Q212.07 395.20 210.85 395.20L210.85 395.20Q209.95 395.20 209.22 395.59Q208.50 395.98 207.98 396.64Q207.45 397.29 207.18 398.13Q206.90 398.97 206.90 399.87L206.90 399.87Q206.90 400.80 207.22 401.61Q207.54 402.42 208.11 403.03Q208.67 403.64 209.43 403.99Q210.18 404.34 211.08 404.34ZM226.86 407.64L226.86 407.64Q224.51 407.64 223.29 406.13Q222.07 404.63 222.07 401.67L222.07 401.67L222.07 392.16L225.96 392.16L225.96 400.83Q225.96 404.34 228.48 404.34L228.48 404.34Q229.61 404.34 230.67 403.65Q231.73 402.97 232.39 401.58L232.39 401.58L232.39 392.16L236.28 392.16L236.28 402.89Q236.28 403.49 236.50 403.76Q236.72 404.02 237.21 404.05L237.21 404.05L237.21 407.35Q236.63 407.47 236.24 407.50Q235.85 407.53 235.53 407.53L235.53 407.53Q234.48 407.53 233.83 407.05Q233.18 406.57 233.06 405.73L233.06 405.73L232.97 404.51Q231.96 406.08 230.36 406.86Q228.77 407.64 226.86 407.64ZM247.18 407.64L247.18 407.64Q245.36 407.64 243.88 407.02Q242.40 406.39 241.36 405.32Q240.31 404.25 239.75 402.83Q239.18 401.41 239.18 399.84L239.18 399.84Q239.18 398.22 239.73 396.78Q240.28 395.35 241.33 394.26Q242.37 393.17 243.86 392.53Q245.36 391.89 247.21 391.89L247.21 391.89Q249.07 391.89 250.53 392.53Q252.00 393.17 253.03 394.24Q254.06 395.32 254.59 396.74Q255.13 398.16 255.13 399.70L255.13 399.70Q255.13 400.07 255.12 400.42Q255.10 400.77 255.04 401.00L255.04 401.00L243.30 401.00Q243.39 401.90 243.73 402.60Q244.08 403.29 244.63 403.78Q245.18 404.28 245.88 404.54Q246.58 404.80 247.33 404.80L247.33 404.80Q248.49 404.80 249.52 404.23Q250.55 403.67 250.93 402.74L250.93 402.74L254.26 403.67Q253.42 405.41 251.58 406.53Q249.74 407.64 247.18 407.64ZM243.24 398.48L251.13 398.48Q250.98 396.77 249.87 395.74Q248.75 394.71 247.16 394.71L247.16 394.71Q246.37 394.71 245.69 394.98Q245.01 395.26 244.49 395.75Q243.97 396.24 243.63 396.94Q243.30 397.64 243.24 398.48L243.24 398.48ZM269.11 407.64L269.11 407.64Q266.76 407.64 265.54 406.13Q264.32 404.63 264.32 401.67L264.32 401.67L264.32 392.16L268.21 392.16L268.21 400.83Q268.21 404.34 270.73 404.34L270.73 404.34Q271.86 404.34 272.92 403.65Q273.98 402.97 274.65 401.58L274.65 401.58L274.65 392.16L278.53 392.16L278.53 402.89Q278.53 403.49 278.75 403.76Q278.97 404.02 279.46 404.05L279.46 404.05L279.46 407.35Q278.88 407.47 278.49 407.50Q278.10 407.53 277.78 407.53L277.78 407.53Q276.74 407.53 276.08 407.05Q275.43 406.57 275.31 405.73L275.31 405.73L275.23 404.51Q274.21 406.08 272.62 406.86Q271.02 407.64 269.11 407.64ZM296.51 397.87L296.51 407.35L292.63 407.35L292.63 398.83Q292.63 397.00 291.99 396.16Q291.35 395.32 290.22 395.32L290.22 395.32Q289.64 395.32 289.03 395.55Q288.42 395.78 287.89 396.20Q287.35 396.62 286.91 397.20Q286.48 397.78 286.28 398.48L286.28 398.48L286.28 407.35L282.39 407.35L282.39 392.16L285.90 392.16L285.90 394.97Q286.74 393.52 288.34 392.71Q289.93 391.89 291.93 391.89L291.93 391.89Q293.35 391.89 294.25 392.42Q295.15 392.94 295.64 393.78Q296.14 394.62 296.32 395.69Q296.51 396.77 296.51 397.87L296.51 397.87ZM304.05 407.64L304.05 407.64Q302.95 407.64 301.99 407.28Q301.04 406.92 300.34 406.26Q299.65 405.61 299.25 404.74Q298.86 403.87 298.86 402.83L298.86 402.83Q298.86 401.75 299.34 400.84Q299.82 399.93 300.67 399.29Q301.53 398.65 302.72 398.29Q303.91 397.93 305.33 397.93L305.33 397.93Q306.34 397.93 307.32 398.10Q308.29 398.27 309.04 398.59L309.04 398.59L309.04 397.72Q309.04 396.22 308.19 395.40Q307.33 394.59 305.65 394.59L305.65 394.59Q304.43 394.59 303.27 395.03Q302.11 395.46 300.89 396.30L300.89 396.30L299.70 393.84Q302.63 391.89 306.03 391.89L306.03 391.89Q309.30 391.89 311.11 393.50Q312.93 395.11 312.93 398.16L312.93 398.16L312.93 402.89Q312.93 403.49 313.14 403.76Q313.36 404.02 313.86 404.05L313.86 404.05L313.86 407.35Q312.87 407.55 312.14 407.55L312.14 407.55Q311.04 407.55 310.45 407.06Q309.85 406.57 309.71 405.76L309.71 405.76L309.62 404.92Q308.61 406.25 307.16 406.95Q305.71 407.64 304.05 407.64ZM305.16 404.80L305.16 404.80Q306.14 404.80 307.03 404.45Q307.91 404.10 308.40 403.52L308.40 403.52Q309.04 403.03 309.04 402.42L309.04 402.42L309.04 400.68Q308.35 400.42 307.53 400.26Q306.72 400.10 305.97 400.10L305.97 400.10Q304.46 400.10 303.50 400.78Q302.55 401.46 302.55 402.51L302.55 402.51Q302.55 403.49 303.30 404.15Q304.05 404.80 305.16 404.80ZM327.40 407.35L323.51 407.35L323.51 392.16L327.40 392.16L327.40 407.35ZM327.40 390.04L323.51 390.04L323.51 386.18L327.40 386.18L327.40 390.04ZM354.51 397.87L354.51 407.35L350.63 407.35L350.63 398.83Q350.63 397.00 350.00 396.16Q349.38 395.32 348.28 395.32L348.28 395.32Q347.12 395.32 346.10 396.20Q345.09 397.09 344.65 398.51L344.65 398.51L344.65 407.35L340.77 407.35L340.77 398.83Q340.77 397.00 340.14 396.16Q339.52 395.32 338.42 395.32L338.42 395.32Q337.29 395.32 336.26 396.19Q335.23 397.06 334.79 398.48L334.79 398.48L334.79 407.35L330.91 407.35L330.91 392.16L334.42 392.16L334.42 394.97Q335.26 393.49 336.72 392.69Q338.19 391.89 340.07 391.89L340.07 391.89Q341.99 391.89 343.03 392.82Q344.07 393.75 344.36 395.11L344.36 395.11Q345.29 393.55 346.71 392.72Q348.13 391.89 349.96 391.89L349.96 391.89Q351.35 391.89 352.25 392.42Q353.15 392.94 353.64 393.78Q354.14 394.62 354.32 395.69Q354.51 396.77 354.51 397.87L354.51 397.87ZM362.05 407.64L362.05 407.64Q360.95 407.64 359.99 407.28Q359.04 406.92 358.34 406.26Q357.65 405.61 357.25 404.74Q356.86 403.87 356.86 402.83L356.86 402.83Q356.86 401.75 357.34 400.84Q357.82 399.93 358.67 399.29Q359.53 398.65 360.72 398.29Q361.91 397.93 363.33 397.93L363.33 397.93Q364.34 397.93 365.32 398.10Q366.29 398.27 367.04 398.59L367.04 398.59L367.04 397.72Q367.04 396.22 366.19 395.40Q365.33 394.59 363.65 394.59L363.65 394.59Q362.43 394.59 361.27 395.03Q360.11 395.46 358.89 396.30L358.89 396.30L357.70 393.84Q360.63 391.89 364.03 391.89L364.03 391.89Q367.30 391.89 369.11 393.50Q370.93 395.11 370.93 398.16L370.93 398.16L370.93 402.89Q370.93 403.49 371.14 403.76Q371.36 404.02 371.86 404.05L371.86 404.05L371.86 407.35Q370.87 407.55 370.14 407.55L370.14 407.55Q369.04 407.55 368.45 407.06Q367.85 406.57 367.71 405.76L367.71 405.76L367.62 404.92Q366.61 406.25 365.16 406.95Q363.71 407.64 362.05 407.64ZM363.16 404.80L363.16 404.80Q364.14 404.80 365.03 404.45Q365.91 404.10 366.40 403.52L366.40 403.52Q367.04 403.03 367.04 402.42L367.04 402.42L367.04 400.68Q366.35 400.42 365.53 400.26Q364.72 400.10 363.97 400.10L363.97 400.10Q362.46 400.10 361.50 400.78Q360.55 401.46 360.55 402.51L360.55 402.51Q360.55 403.49 361.30 404.15Q362.05 404.80 363.16 404.80ZM380.50 407.44L380.50 407.44Q378.96 407.44 377.71 406.83Q376.47 406.22 375.55 405.16Q374.64 404.10 374.15 402.71Q373.65 401.32 373.65 399.75L373.65 399.75Q373.65 398.10 374.18 396.68Q374.70 395.26 375.63 394.19Q376.55 393.11 377.86 392.50Q379.16 391.89 380.73 391.89L380.73 391.89Q382.50 391.89 383.83 392.69Q385.17 393.49 386.04 394.82L386.04 394.82L386.04 392.16L389.43 392.16L389.43 406.63Q389.43 408.31 388.79 409.64Q388.15 410.98 387.04 411.90Q385.92 412.83 384.37 413.33Q382.82 413.82 380.99 413.82L380.99 413.82Q378.50 413.82 376.80 412.99Q375.10 412.17 373.89 410.66L373.89 410.66L376.00 408.60Q376.87 409.67 378.19 410.28Q379.51 410.89 380.99 410.89L380.99 410.89Q381.89 410.89 382.72 410.64Q383.54 410.40 384.18 409.87Q384.82 409.35 385.18 408.54Q385.54 407.73 385.54 406.63L385.54 406.63L385.54 404.71Q384.79 406.02 383.43 406.73Q382.06 407.44 380.50 407.44ZM381.80 404.34L381.80 404.34Q382.44 404.34 383.02 404.13Q383.60 403.93 384.09 403.58Q384.59 403.23 384.96 402.77Q385.34 402.31 385.54 401.78L385.54 401.78L385.54 398.16Q385.02 396.82 383.90 396.01Q382.79 395.20 381.57 395.20L381.57 395.20Q380.67 395.20 379.95 395.59Q379.22 395.98 378.70 396.64Q378.18 397.29 377.90 398.13Q377.63 398.97 377.63 399.87L377.63 399.87Q377.63 400.80 377.95 401.61Q378.26 402.42 378.83 403.03Q379.40 403.64 380.15 403.99Q380.90 404.34 381.80 404.34ZM399.99 407.64L399.99 407.64Q398.16 407.64 396.68 407.02Q395.20 406.39 394.16 405.32Q393.11 404.25 392.55 402.83Q391.98 401.41 391.98 399.84L391.98 399.84Q391.98 398.22 392.53 396.78Q393.08 395.35 394.13 394.26Q395.17 393.17 396.66 392.53Q398.16 391.89 400.01 391.89L400.01 391.89Q401.87 391.89 403.33 392.53Q404.80 393.17 405.83 394.24Q406.86 395.32 407.39 396.74Q407.93 398.16 407.93 399.70L407.93 399.70Q407.93 400.07 407.92 400.42Q407.90 400.77 407.84 401.00L407.84 401.00L396.10 401.00Q396.19 401.90 396.53 402.60Q396.88 403.29 397.43 403.78Q397.98 404.28 398.68 404.54Q399.38 404.80 400.13 404.80L400.13 404.80Q401.29 404.80 402.32 404.23Q403.35 403.67 403.73 402.74L403.73 402.74L407.06 403.67Q406.22 405.41 404.38 406.53Q402.54 407.64 399.99 407.64ZM396.04 398.48L403.93 398.48Q403.78 396.77 402.67 395.74Q401.55 394.71 399.96 394.71L399.96 394.71Q399.17 394.71 398.49 394.98Q397.81 395.26 397.29 395.75Q396.77 396.24 396.43 396.94Q396.10 397.64 396.04 398.48L396.04 398.48ZM424.43 397.87L424.43 407.35L420.55 407.35L420.55 398.83Q420.55 397.00 419.91 396.16Q419.27 395.32 418.14 395.32L418.14 395.32Q417.56 395.32 416.95 395.55Q416.34 395.78 415.80 396.20Q415.27 396.62 414.83 397.20Q414.40 397.78 414.20 398.48L414.20 398.48L414.20 407.35L410.31 407.35L410.31 392.16L413.82 392.16L413.82 394.97Q414.66 393.52 416.25 392.71Q417.85 391.89 419.85 391.89L419.85 391.89Q421.27 391.89 422.17 392.42Q423.07 392.94 423.56 393.78Q424.06 394.62 424.24 395.69Q424.43 396.77 424.43 397.87L424.43 397.87ZM443.89 407.64L443.89 407.64Q442.09 407.64 440.76 406.84Q439.43 406.05 438.67 404.68L438.67 404.68L438.67 413.53L434.79 413.53L434.79 392.16L438.18 392.16L438.18 394.77Q439.02 393.43 440.35 392.66Q441.69 391.89 443.43 391.89L443.43 391.89Q444.96 391.89 446.27 392.52Q447.57 393.14 448.52 394.20Q449.46 395.26 450.00 396.69Q450.53 398.13 450.53 399.72L450.53 399.72Q450.53 401.38 450.04 402.83Q449.55 404.28 448.66 405.35Q447.78 406.42 446.56 407.03Q445.34 407.64 443.89 407.64ZM442.59 404.34L442.59 404.34Q443.46 404.34 444.20 403.96Q444.94 403.58 445.46 402.94Q445.98 402.31 446.27 401.46Q446.56 400.62 446.56 399.72L446.56 399.72Q446.56 398.77 446.24 397.94Q445.92 397.11 445.36 396.51Q444.79 395.90 444.02 395.55Q443.25 395.20 442.35 395.20L442.35 395.20Q441.80 395.20 441.22 395.39Q440.64 395.58 440.15 395.93Q439.66 396.27 439.27 396.74Q438.87 397.20 438.67 397.75L438.67 397.75L438.67 401.32Q439.19 402.62 440.27 403.48Q441.34 404.34 442.59 404.34ZM457.32 407.64L457.32 407.64Q456.22 407.64 455.26 407.28Q454.30 406.92 453.61 406.26Q452.91 405.61 452.52 404.74Q452.13 403.87 452.13 402.83L452.13 402.83Q452.13 401.75 452.61 400.84Q453.08 399.93 453.94 399.29Q454.80 398.65 455.98 398.29Q457.17 397.93 458.59 397.93L458.59 397.93Q459.61 397.93 460.58 398.10Q461.55 398.27 462.31 398.59L462.31 398.59L462.31 397.72Q462.31 396.22 461.45 395.40Q460.60 394.59 458.91 394.59L458.91 394.59Q457.70 394.59 456.54 395.03Q455.38 395.46 454.16 396.30L454.16 396.30L452.97 393.84Q455.90 391.89 459.29 391.89L459.29 391.89Q462.57 391.89 464.38 393.50Q466.19 395.11 466.19 398.16L466.19 398.16L466.19 402.89Q466.19 403.49 466.41 403.76Q466.63 404.02 467.12 404.05L467.12 404.05L467.12 407.35Q466.13 407.55 465.41 407.55L465.41 407.55Q464.31 407.55 463.71 407.06Q463.12 406.57 462.97 405.76L462.97 405.76L462.89 404.92Q461.87 406.25 460.42 406.95Q458.97 407.64 457.32 407.64ZM458.42 404.80L458.42 404.80Q459.41 404.80 460.29 404.45Q461.18 404.10 461.67 403.52L461.67 403.52Q462.31 403.03 462.31 402.42L462.31 402.42L462.31 400.68Q461.61 400.42 460.80 400.26Q459.99 400.10 459.23 400.10L459.23 400.10Q457.72 400.10 456.77 400.78Q455.81 401.46 455.81 402.51L455.81 402.51Q455.81 403.49 456.56 404.15Q457.32 404.80 458.42 404.80ZM478.87 391.98L478.87 395.52Q477.10 395.55 475.70 396.20Q474.31 396.85 473.70 398.16L473.70 398.16L473.70 407.35L469.82 407.35L469.82 392.16L473.38 392.16L473.38 395.40Q473.79 394.62 474.34 394.00Q474.89 393.37 475.53 392.91Q476.17 392.45 476.82 392.20Q477.47 391.95 478.08 391.95L478.08 391.95Q478.40 391.95 478.56 391.95Q478.72 391.95 478.87 391.98L478.87 391.98ZM484.98 407.64L484.98 407.64Q483.88 407.64 482.93 407.28Q481.97 406.92 481.27 406.26Q480.58 405.61 480.19 404.74Q479.79 403.87 479.79 402.83L479.79 402.83Q479.79 401.75 480.27 400.84Q480.75 399.93 481.61 399.29Q482.46 398.65 483.65 398.29Q484.84 397.93 486.26 397.93L486.26 397.93Q487.28 397.93 488.25 398.10Q489.22 398.27 489.97 398.59L489.97 398.59L489.97 397.72Q489.97 396.22 489.12 395.40Q488.26 394.59 486.58 394.59L486.58 394.59Q485.36 394.59 484.20 395.03Q483.04 395.46 481.82 396.30L481.82 396.30L480.63 393.84Q483.56 391.89 486.96 391.89L486.96 391.89Q490.23 391.89 492.05 393.50Q493.86 395.11 493.86 398.16L493.86 398.16L493.86 402.89Q493.86 403.49 494.08 403.76Q494.29 404.02 494.79 404.05L494.79 404.05L494.79 407.35Q493.80 407.55 493.08 407.55L493.08 407.55Q491.97 407.55 491.38 407.06Q490.78 406.57 490.64 405.76L490.64 405.76L490.55 404.92Q489.54 406.25 488.09 406.95Q486.64 407.64 484.98 407.64ZM486.09 404.80L486.09 404.80Q487.07 404.80 487.96 404.45Q488.84 404.10 489.33 403.52L489.33 403.52Q489.97 403.03 489.97 402.42L489.97 402.42L489.97 400.68Q489.28 400.42 488.46 400.26Q487.65 400.10 486.90 400.10L486.90 400.10Q485.39 400.10 484.43 400.78Q483.48 401.46 483.48 402.51L483.48 402.51Q483.48 403.49 484.23 404.15Q484.98 404.80 486.09 404.80ZM503.49 399.75L503.49 399.75Q503.49 398.16 504.04 396.74Q504.59 395.32 505.63 394.24Q506.68 393.17 508.16 392.53Q509.63 391.89 511.49 391.89L511.49 391.89Q513.98 391.89 515.74 392.97Q517.49 394.04 518.36 395.78L518.36 395.78L514.56 396.94Q514.07 396.10 513.26 395.65Q512.45 395.20 511.46 395.20L511.46 395.20Q510.62 395.20 509.90 395.53Q509.17 395.87 508.63 396.46Q508.10 397.06 507.79 397.90Q507.49 398.74 507.49 399.75L507.49 399.75Q507.49 400.77 507.81 401.61Q508.13 402.45 508.66 403.06Q509.20 403.67 509.92 404.00Q510.65 404.34 511.46 404.34L511.46 404.34Q512.51 404.34 513.39 403.81Q514.27 403.29 514.62 402.54L514.62 402.54L518.42 403.70Q517.64 405.44 515.84 406.54Q514.04 407.64 511.52 407.64L511.52 407.64Q509.66 407.64 508.18 407.00Q506.71 406.37 505.66 405.28Q504.62 404.19 504.05 402.76Q503.49 401.32 503.49 399.75ZM527.67 407.64L527.67 407.64Q525.82 407.64 524.34 407.00Q522.86 406.37 521.83 405.28Q520.80 404.19 520.25 402.77Q519.70 401.35 519.70 399.78L519.70 399.78Q519.70 398.19 520.25 396.77Q520.80 395.35 521.83 394.26Q522.86 393.17 524.34 392.53Q525.82 391.89 527.67 391.89L527.67 391.89Q529.53 391.89 530.99 392.53Q532.46 393.17 533.49 394.26Q534.52 395.35 535.07 396.77Q535.62 398.19 535.62 399.78L535.62 399.78Q535.62 401.35 535.07 402.77Q534.52 404.19 533.50 405.28Q532.49 406.37 531.01 407.00Q529.53 407.64 527.67 407.64ZM523.70 399.78L523.70 399.78Q523.70 400.80 524.00 401.62Q524.31 402.45 524.85 403.06Q525.38 403.67 526.11 404.00Q526.83 404.34 527.67 404.34L527.67 404.34Q528.51 404.34 529.24 404.00Q529.96 403.67 530.50 403.06Q531.04 402.45 531.34 401.61Q531.65 400.77 531.65 399.75L531.65 399.75Q531.65 398.77 531.34 397.93Q531.04 397.09 530.50 396.48Q529.96 395.87 529.24 395.53Q528.51 395.20 527.67 395.20L527.67 395.20Q526.83 395.20 526.11 395.55Q525.38 395.90 524.85 396.51Q524.31 397.11 524.00 397.96Q523.70 398.80 523.70 399.78ZM561.83 397.87L561.83 407.35L557.95 407.35L557.95 398.83Q557.95 397.00 557.33 396.16Q556.70 395.32 555.60 395.32L555.60 395.32Q554.44 395.32 553.42 396.20Q552.41 397.09 551.97 398.51L551.97 398.51L551.97 407.35L548.09 407.35L548.09 398.83Q548.09 397.00 547.47 396.16Q546.84 395.32 545.74 395.32L545.74 395.32Q544.61 395.32 543.58 396.19Q542.55 397.06 542.11 398.48L542.11 398.48L542.11 407.35L538.23 407.35L538.23 392.16L541.74 392.16L541.74 394.97Q542.58 393.49 544.04 392.69Q545.51 391.89 547.39 391.89L547.39 391.89Q549.31 391.89 550.35 392.82Q551.39 393.75 551.68 395.11L551.68 395.11Q552.61 393.55 554.03 392.72Q555.45 391.89 557.28 391.89L557.28 391.89Q558.67 391.89 559.57 392.42Q560.47 392.94 560.96 393.78Q561.46 394.62 561.65 395.69Q561.83 396.77 561.83 397.87L561.83 397.87ZM572.27 407.64L572.27 407.64Q570.45 407.64 568.97 407.02Q567.49 406.39 566.45 405.32Q565.40 404.25 564.84 402.83Q564.27 401.41 564.27 399.84L564.27 399.84Q564.27 398.22 564.82 396.78Q565.37 395.35 566.42 394.26Q567.46 393.17 568.95 392.53Q570.45 391.89 572.30 391.89L572.30 391.89Q574.16 391.89 575.62 392.53Q577.09 393.17 578.12 394.24Q579.15 395.32 579.68 396.74Q580.22 398.16 580.22 399.70L580.22 399.70Q580.22 400.07 580.21 400.42Q580.19 400.77 580.13 401.00L580.13 401.00L568.39 401.00Q568.48 401.90 568.82 402.60Q569.17 403.29 569.72 403.78Q570.27 404.28 570.97 404.54Q571.67 404.80 572.42 404.80L572.42 404.80Q573.58 404.80 574.61 404.23Q575.64 403.67 576.02 402.74L576.02 402.74L579.35 403.67Q578.51 405.41 576.67 406.53Q574.83 407.64 572.27 407.64ZM568.33 398.48L576.22 398.48Q576.07 396.77 574.96 395.74Q573.84 394.71 572.25 394.71L572.25 394.71Q571.46 394.71 570.78 394.98Q570.10 395.26 569.58 395.75Q569.06 396.24 568.72 396.94Q568.39 397.64 568.33 398.48L568.33 398.48ZM596.72 397.87L596.72 407.35L592.84 407.35L592.84 398.83Q592.84 397.00 592.20 396.16Q591.56 395.32 590.43 395.32L590.43 395.32Q589.85 395.32 589.24 395.55Q588.63 395.78 588.09 396.20Q587.56 396.62 587.12 397.20Q586.69 397.78 586.48 398.48L586.48 398.48L586.48 407.35L582.60 407.35L582.60 392.16L586.11 392.16L586.11 394.97Q586.95 393.52 588.54 392.71Q590.14 391.89 592.14 391.89L592.14 391.89Q593.56 391.89 594.46 392.42Q595.36 392.94 595.85 393.78Q596.34 394.62 596.53 395.69Q596.72 396.77 596.72 397.87L596.72 397.87ZM599.10 407.35L599.10 404.97L607.57 394.88L599.45 394.88L599.45 392.16L611.66 392.16L611.66 394.53L603.25 404.63L611.80 404.63L611.80 407.35L599.10 407.35ZM618.56 407.64L618.56 407.64Q617.46 407.64 616.50 407.28Q615.54 406.92 614.85 406.26Q614.15 405.61 613.76 404.74Q613.37 403.87 613.37 402.83L613.37 402.83Q613.37 401.75 613.85 400.84Q614.32 399.93 615.18 399.29Q616.04 398.65 617.22 398.29Q618.41 397.93 619.83 397.93L619.83 397.93Q620.85 397.93 621.82 398.10Q622.79 398.27 623.55 398.59L623.55 398.59L623.55 397.72Q623.55 396.22 622.69 395.40Q621.84 394.59 620.15 394.59L620.15 394.59Q618.94 394.59 617.78 395.03Q616.62 395.46 615.40 396.30L615.40 396.30L614.21 393.84Q617.14 391.89 620.53 391.89L620.53 391.89Q623.81 391.89 625.62 393.50Q627.43 395.11 627.43 398.16L627.43 398.16L627.43 402.89Q627.43 403.49 627.65 403.76Q627.87 404.02 628.36 404.05L628.36 404.05L628.36 407.35Q627.37 407.55 626.65 407.55L626.65 407.55Q625.55 407.55 624.95 407.06Q624.36 406.57 624.21 405.76L624.21 405.76L624.13 404.92Q623.11 406.25 621.66 406.95Q620.21 407.64 618.56 407.64ZM619.66 404.80L619.66 404.80Q620.65 404.80 621.53 404.45Q622.42 404.10 622.91 403.52L622.91 403.52Q623.55 403.03 623.55 402.42L623.55 402.42L623.55 400.68Q622.85 400.42 622.04 400.26Q621.23 400.10 620.47 400.10L620.47 400.10Q618.96 400.10 618.01 400.78Q617.05 401.46 617.05 402.51L617.05 402.51Q617.05 403.49 617.80 404.15Q618.56 404.80 619.66 404.80ZM640.11 391.98L640.11 395.52Q638.34 395.55 636.94 396.20Q635.55 396.85 634.94 398.16L634.94 398.16L634.94 407.35L631.06 407.35L631.06 392.16L634.62 392.16L634.62 395.40Q635.03 394.62 635.58 394.00Q636.13 393.37 636.77 392.91Q637.41 392.45 638.06 392.20Q638.71 391.95 639.32 391.95L639.32 391.95Q639.64 391.95 639.80 391.95Q639.96 391.95 640.11 391.98L640.11 391.98ZM644.05 407.35L640.86 407.35L640.86 403.18L644.05 403.18L644.05 407.35Z" fill="#FFF"/></svg>